<svg xmlns="http://www.w3.org/2000/svg" viewBox="0 0 512 512" style="enable-background:new 0 0 512 512" xml:space="preserve"><path style="fill:#f4cf9d" d="M504.348 214.171c0-14.885-12.065-26.956-26.955-26.956-110.526 0-89.793.008-117.048-.027 37.676-55.204 42.937-157.699 7.885-157.699-35.051 0-25.409 86.75-70.096 115.664-44.689 28.918-69.225 99.017-69.225 99.017h-50.632v150.715h62.021c37.989 10.601 52.453 7.967 205.22 7.967 14.885 0 26.954-12.068 26.954-26.955 0-14.886-12.067-26.954-26.954-26.954h10.625c14.885 0 26.955-12.07 26.955-26.957s-12.069-26.954-26.955-26.954h10.625c14.885 0 26.954-12.07 26.954-26.957s-12.068-26.953-26.954-26.953h10.624c14.89.004 26.956-12.065 26.956-26.951z"/><path style="fill:#88dce5" d="M164.501 219.636h-35.295v219.501h35.295c8.71 0 15.773-7.064 15.773-15.775V235.408c.001-8.709-7.062-15.772-15.773-15.772z"/><path style="fill:#74c4c4" d="M164.501 332.862h-35.295v106.276h35.295c8.71 0 15.773-7.064 15.773-15.775V317.089c.001 8.71-7.062 15.773-15.773 15.773z"/><path style="fill:#efbf86" d="M178.276 244.171v150.715h62.021c37.68 10.514 74.091 7.967 74.091 7.967-115.941 0-99.933-158.682-99.933-158.682h-36.179z"/><path style="fill:#6b6968" d="M7.653 466.737c0 8.712 7.061 15.774 15.773 15.774h92.007c8.71 0 15.773-7.061 15.773-15.774V202.988c0-8.712-7.062-15.773-15.773-15.773H23.426c-8.711 0-15.773 7.06-15.773 15.773v263.749z"/><path style="fill:#51504e" d="M115.433 345.208H23.426c-8.711 0-15.773-7.062-15.773-15.775v137.304c0 8.712 7.061 15.774 15.773 15.774h92.007c8.71 0 15.773-7.061 15.773-15.774V329.434c-.001 8.711-7.063 15.774-15.773 15.774z"/><path d="M512 214.145c0-19.008-15.464-34.472-34.471-34.472h-105.23c34.387-59.448 39.134-157.823-4.001-157.823-43.439 0-31.533 89.324-74.214 116.94-39.749 25.721-63.72 80.846-70.389 97.874h-35.967c0-15.449-11.384-24.55-23.283-24.55h-25.816v-9.158c0-12.837-10.444-23.282-23.283-23.282H23.283C10.444 179.673 0 190.118 0 202.956v263.911c0 12.839 10.444 23.284 23.283 23.284h92.063c12.838 0 23.283-10.444 23.283-23.284v-20.116h25.816c12.838 0 23.283-10.444 23.283-23.284v-20.995h51.543c24.966 6.826 54.888 9.275 75.401 7.973h77.222c4.143 0 7.5-3.357 7.5-7.5s-3.357-7.5-7.5-7.5c-101.318 0-116.956 1.41-149.59-7.696-1.411-.395 2.16-.276-54.575-.276V251.664h41.162a7.505 7.505 0 0 0 7.078-5.02c.237-.678 24.271-68.088 66.264-95.261C347.954 121.801 342.64 36.85 368.298 36.85c23.931 0 22.392 89.286-13.655 142.823h-8.323c-4.143 0-7.5 3.357-7.5 7.5s3.357 7.5 7.5 7.5h131.21c10.735 0 19.471 8.734 19.471 19.472 0 10.737-8.734 19.472-19.471 19.472h-10.632c-4.143 0-7.5 3.357-7.5 7.5s3.357 7.5 7.5 7.5c10.735 0 19.471 8.733 19.471 19.47 0 10.737-8.734 19.474-19.471 19.474h-10.631a7.499 7.499 0 0 0-7.5 7.5c0 4.143 3.357 7.5 7.5 7.5 10.736 0 19.472 8.733 19.472 19.47 0 10.737-8.734 19.474-19.472 19.474h-10.632a7.499 7.499 0 0 0-7.5 7.5c0 4.143 3.357 7.5 7.5 7.5 10.735 0 19.471 8.733 19.471 19.47 0 10.736-8.734 19.472-19.471 19.472h-27.739a7.499 7.499 0 0 0-7.5 7.5c0 4.143 3.357 7.5 7.5 7.5h27.739c29.723 0 45.473-35.296 25.705-57.415 20.572-10.043 25.851-36.911 10.633-53.943 20.576-10.046 25.845-36.919 10.631-53.943C504.078 239.542 512 227.752 512 214.145zM172.728 423.467c0 4.567-3.716 8.283-8.282 8.283H138.63V289.32c0-4.143-3.357-7.5-7.5-7.5s-7.5 3.357-7.5 7.5v177.546c0 4.567-3.716 8.283-8.282 8.283H23.284c-4.566 0-8.282-3.716-8.282-8.283v-263.91c0-4.566 3.716-8.281 8.282-8.281h92.063c4.566 0 8.282 3.715 8.282 8.281v59.36c0 4.143 3.357 7.5 7.5 7.5s7.5-3.357 7.5-7.5v-35.201h25.816c4.566 0 8.282 3.715 8.282 8.281v188.071z"/></svg>