<svg xmlns="http://www.w3.org/2000/svg" viewBox="0 0 48 48"><defs><style>.cls-2{fill:#273941}.cls-3{fill:#141e21}.cls-4{fill:#f6fafd}.cls-6{fill:#ffb32b}</style></defs><g id="_11-wow" data-name="11-wow"><circle cx="24" cy="24" r="23" style="fill:#ffce52"/><ellipse class="cls-2" cx="33" cy="18" rx="3" ry="4"/><ellipse class="cls-2" cx="15" cy="18" rx="3" ry="4"/><ellipse class="cls-3" cx="33" cy="18" rx="2" ry="3"/><ellipse class="cls-3" cx="15" cy="18" rx="2" ry="3"/><circle class="cls-4" cx="34" cy="17" r="1"/><circle class="cls-4" cx="16" cy="17" r="1"/><path class="cls-2" d="M37 10h-2a2 2 0 0 0-4 0h-2a4 4 0 0 1 8 0zM19 10h-2a2 2 0 0 0-4 0h-2a4 4 0 0 1 8 0z"/><path d="M24 4c12.15 0 22 8.507 22 19h.975a23 23 0 0 0-45.95 0H2C2 12.507 11.85 4 24 4z" style="fill:#ffe369"/><path class="cls-6" d="M46 23c0 10.493-9.85 19-22 19S2 33.493 2 23h-.975c-.014.332-.025.665-.025 1a23 23 0 0 0 46 0c0-.335-.011-.668-.025-1z"/><ellipse class="cls-4" cx="34" cy="5" rx=".825" ry="1.148" transform="rotate(-45.02 34 5)"/><ellipse class="cls-4" cx="26.746" cy="3.5" rx=".413" ry=".574" transform="rotate(-45.02 26.746 3.5)"/><ellipse class="cls-4" cx="30" cy="4" rx="1.65" ry="2.297" transform="rotate(-45.02 30 4)"/><ellipse class="cls-2" cx="24" cy="34" rx="6" ry="9"/><path d="M24 43c2.542 0 4.71-2.375 5.584-5.723a7.985 7.985 0 0 0-11.168 0C19.29 40.625 21.458 43 24 43z" style="fill:#ae2d4c"/><path class="cls-6" d="M24 43c-3.088 0-5.629-3.5-5.961-8-.024.329-.039.662-.039 1 0 4.971 2.686 9 6 9s6-4.029 6-9c0-.338-.015-.671-.039-1-.332 4.5-2.873 8-5.961 8z"/><path class="cls-3" d="M24 27c3.088 0 5.629 3.5 5.961 8 .024-.329.039-.662.039-1 0-4.971-2.686-9-6-9s-6 4.029-6 9c0 .338.015.671.039 1 .332-4.5 2.873-8 5.961-8z"/><path d="M24 41c-2.132 0-3.989-1.682-5.052-4.2a7.95 7.95 0 0 0-.532.473C19.29 40.625 21.458 43 24 43s4.71-2.375 5.584-5.723a7.95 7.95 0 0 0-.532-.473C27.989 39.318 26.132 41 24 41z" style="fill:#8a293d"/></g></svg>